# xmcd
#
# Track frame offsets:
#	150
#	17306
#	28744
#	45058
#	54245
#	69157
#	84122
#	95042
#	111138
#	124172
#	138546
#	153242
#	165656
#	181991
#	194096
#
# Disc length: 2768 seconds
#
# Revision: 1
# Processed by: cddbd v1.5.2PL0 Copyright (c) Steve Scherf et al.
# Submitted via: audiograbber 1.83.01
#
DISCID=b50ace0f
DTITLE=The Smokie Mountain Band - Smoky Mountain Memories Disk 1
DYEAR=1900
DGENRE=Bluegrass
TTITLE0=The Tennessee Waltz
TTITLE1=My Home's Across The Smoky Mountains
TTITLE2=Billy In The Lowground
TTITLE3=Down Yonder
TTITLE4=I Saw The Light
TTITLE5=Little Maggie
TTITLE6=Foggy Mountain Breakdown
TTITLE7=Stormy Waters
TTITLE8=Turkey In The Straw
TTITLE9=Back Up And Push
TTITLE10=Buffalo Gals
TTITLE11=Soul of Man
TTITLE12=Panhandle Rag
TTITLE13=Swing Low Sweet Chariot
TTITLE14=Wabash Cannonball
EXTD=
EXTT0=
EXTT1=
EXTT2=
EXTT3=
EXTT4=
EXTT5=
EXTT6=
EXTT7=
EXTT8=
EXTT9=
EXTT10=
EXTT11=
EXTT12=
EXTT13=
EXTT14=
PLAYORDER=
